<?xml version="1.0" encoding="UTF-8"?><svg id="a" xmlns="http://www.w3.org/2000/svg" viewBox="0 0 150 150"><defs><style>.b{fill:#072445;}.c{fill:none;}.d{fill:#37b6ba;}</style></defs><path class="c" d="M0,0H150V150H0V0Z"/><path class="b" d="M34.41,124.91l13.89-71.73h8.61l18.39,48.31,18.29-48.32h8.61l13.94,71.73h-10.86l-9.27-48.01-17.17,45.29h-7.17l-17.11-45.29-9.27,48.01h-10.86Z"/><path class="b" d="M75.5,22.55c6.66-6.52,6.61-15.17,0-21.63-6.66,6.52-6.61,15.17,0,21.63Z"/><path class="b" d="M105.6,25.33c-5.03,2.14-7.53,9.86-7.35,9.77,7.65,3.08,17.53-2.39,18.93-10.46,0,0-6.52-2.1-11.59,.7Z"/><path class="b" d="M46.6,25.66c-4.51-3.09-12.35-1.14-12.18-1.02,2.52,9.02,10.04,13.1,18.93,10.46,0,0-1.69-6.65-6.75-9.44Z"/><path class="b" d="M56.02,21.12c1.8,3.22,6.68,4.24,6.61,4.19,1.36-5.95-1.81-10.77-7.74-11.95-.02-.05-1.09,4.78,1.13,7.76Z"/><path class="b" d="M89.62,17.36c-2.25,2.8-1.32,8.06-1.24,7.95,5.99-1.2,9.09-6.05,7.74-11.95,0,0-4.44,.8-6.51,4Z"/><path class="d" d="M54.96,37.28c18.98,11.08,20.49,37.8,20.49,37.8,.37-10.81,.64-21.13,0-27.45,0,0-10.34-12.2-20.49-10.35Z"/><circle class="b" cx="75.44" cy="35.9" r="5.14"/><path class="b" d="M75.44,47.63v27.46s1.51-26.73,20.49-37.8c-10.14-1.86-20.49,10.35-20.49,10.35Z"/></svg>